<?xml version="1.0" encoding="UTF-8" standalone="no"?>
<svg
   xmlns:dc="http://purl.org/dc/elements/1.1/"
   xmlns:cc="http://creativecommons.org/ns#"
   xmlns:rdf="http://www.w3.org/1999/02/22-rdf-syntax-ns#"
   xmlns:svg="http://www.w3.org/2000/svg"
   xmlns="http://www.w3.org/2000/svg"
   id="svg889"
   version="1.1"
   viewBox="0 0 210 297"
   height="297mm"
   width="210mm">
  <defs
     id="defs883" />
  <metadata
     id="metadata886">
    <rdf:RDF>
      <cc:Work
         rdf:about="">
        <dc:format>image/svg+xml</dc:format>
        <dc:type
           rdf:resource="http://purl.org/dc/dcmitype/StillImage" />
        <dc:title></dc:title>
      </cc:Work>
    </rdf:RDF>
  </metadata>
  <g
     style="display:inline"
     id="layer1">
    <circle
       r="100"
       cy="144.76488"
       cx="105.07737"
       id="path1492"
       style="fill:#1a1a1a;stroke:#c5c5c5;stroke-width:0" />
    <g
       transform="matrix(1.9778897,0,0,1.8598995,-131.18551,-115.63511)"
       style="display:inline;stroke:#c5c5c5;stroke-width:1;stroke-miterlimit:4;stroke-dasharray:none;stroke-opacity:1"
       id="g976">
      <path
         style="display:inline;fill:none;stroke:#c5c5c5;stroke-width:1;stroke-linecap:round;stroke-linejoin:round;stroke-miterlimit:4;stroke-dasharray:none;stroke-opacity:1"
         d="m 140.75383,95.476977 -5.7757,10.193253 11.64287,5.34441 0.68396,-3.353 -0.9424,-3.43468 -2.55384,2.34543 -0.50188,-7.713584 z"
         id="path27" />
      <path
         style="display:inline;fill:none;stroke:#c5c5c5;stroke-width:1;stroke-linecap:round;stroke-linejoin:round;stroke-miterlimit:4;stroke-dasharray:none;stroke-opacity:1"
         d="m 146.621,111.01464 1.30669,0.80102 -1.25084,6.55585 1.02982,11.0606 -0.7136,11.129 -2.74518,12.18584 -2.40231,4.78211 -1.33437,15.02003 0.006,4.63559 3.73974,2.01515 1.64498,2.53399 -6.65417,-0.44556 -2.38848,-3.12844 -2.07356,-14.21062 1.43481,-9.57739 -3.0956,6.90891 -1.0426,10.62225 0.60045,5.11115 2.11337,1.9335 0.68311,2.37425 -5.16071,-0.34828 -1.4898,-3.50673 -2.51234,-21.38614 -11.70424,0.14768 -0.62726,4.98265 -4.46264,7.88768 2.51119,7.61389 3.30945,1.79304 1.19888,2.17727 -6.63838,-0.31105 -5.09856,-13.58253 2.34928,-9.8212 -7.171693,11.20586 0.963843,8.20475 3.32524,1.9275 1.37921,2.56521 -6.239689,-0.3579 -1.777887,-2.51836 -2.836509,-11.53012 3.707021,-12.02612 -2.267687,-6.68797 -5.433847,6.50182 -11.900363,-0.37472 -6.526896,-5.09676 13.312002,-2.51832 7.291593,-9.03821 4.499897,-2.98308 25.067355,-5.67194 5.64855,-3.52713 2.2759,-5.85813 -6.53986,-2.91346 7.01563,-4.50589 1.21553,-3.41543 2.06035,-3.10561 1.43957,0.78539 10.74997,12.37322"
         id="path29" />
      <path
         style="display:inline;fill:none;stroke:#c5c5c5;stroke-width:1;stroke-linecap:round;stroke-linejoin:round;stroke-miterlimit:4;stroke-dasharray:none;stroke-opacity:1"
         d="m 130.94563,111.76518 -0.47577,7.41935 17.23685,10.24757"
         id="path31" />
      <path
         style="display:inline;fill:none;stroke:#c5c5c5;stroke-width:1;stroke-linecap:round;stroke-linejoin:round;stroke-miterlimit:4;stroke-dasharray:none;stroke-opacity:1"
         d="m 128.19397,125.04266 18.79914,15.51844 -10.7729,13.81071"
         id="path33" />
      <path
         style="display:inline;fill:none;stroke:#c5c5c5;stroke-width:1;stroke-linecap:round;stroke-linejoin:round;stroke-miterlimit:4;stroke-dasharray:none;stroke-opacity:1"
         d="m 141.84562,157.52906 -0.93423,-9.10092"
         id="path35" />
      <path
         style="display:inline;fill:none;stroke:#c5c5c5;stroke-width:1;stroke-linecap:round;stroke-linejoin:round;stroke-miterlimit:4;stroke-dasharray:none;stroke-opacity:1"
         d="M 136.22021,154.37181 122.54542,128.56978"
         id="path37" />
      <path
         style="display:inline;fill:none;stroke:#c5c5c5;stroke-width:1;stroke-linecap:round;stroke-linejoin:round;stroke-miterlimit:4;stroke-dasharray:none;stroke-opacity:1"
         d="m 126.31611,156.08071 2.13825,-16.20535"
         id="path39" />
      <path
         style="display:inline;fill:none;stroke:#c5c5c5;stroke-width:1;stroke-linecap:round;stroke-linejoin:round;stroke-miterlimit:4;stroke-dasharray:none;stroke-opacity:1"
         d="m 134.7854,163.9492 7.06022,-6.42014"
         id="path41" />
      <path
         style="display:inline;fill:none;stroke:#c5c5c5;stroke-width:1;stroke-linecap:round;stroke-linejoin:round;stroke-miterlimit:4;stroke-dasharray:none;stroke-opacity:1"
         d="m 126.31611,156.08071 -15.32346,-24.92656 -3.83882,25.81399 7.45804,-0.73972 -9.80732,10.56095"
         id="path43" />
      <path
         style="display:inline;fill:none;stroke:#c5c5c5;stroke-width:1;stroke-linecap:round;stroke-linejoin:round;stroke-miterlimit:4;stroke-dasharray:none;stroke-opacity:1"
         d="m 98.503362,154.43896 8.650468,2.52918"
         id="path45" />
      <path
         style="display:inline;fill:none;stroke:#c5c5c5;stroke-width:1;stroke-linecap:round;stroke-linejoin:round;stroke-miterlimit:4;stroke-dasharray:none;stroke-opacity:1"
         d="m 110.99265,131.15415 -14.756975,16.59685 1.242387,-13.50927 -6.676233,20.01109 -5.115257,-7.98982 -6.785106,7.61509"
         id="path47" />
      <path
         style="display:inline;fill:none;stroke:#c5c5c5;stroke-width:1;stroke-linecap:round;stroke-linejoin:round;stroke-miterlimit:4;stroke-dasharray:none;stroke-opacity:1"
         d="m 94.796341,166.46508 5.185796,1.70893"
         id="path49" />
      <path
         style="display:inline;fill:none;stroke:#c5c5c5;stroke-width:1;stroke-linecap:round;stroke-linejoin:round;stroke-miterlimit:4;stroke-dasharray:none;stroke-opacity:1"
         d="m 97.632851,177.99521 3.313129,-1.61645"
         id="path51" />
      <path
         style="display:inline;fill:none;stroke:#c5c5c5;stroke-width:1;stroke-linecap:round;stroke-linejoin:round;stroke-miterlimit:4;stroke-dasharray:none;stroke-opacity:1"
         d="m 109.90311,180.37187 2.13005,-3.65925"
         id="path53" />
      <path
         style="display:inline;fill:none;stroke:#c5c5c5;stroke-width:1;stroke-linecap:round;stroke-linejoin:round;stroke-miterlimit:4;stroke-dasharray:none;stroke-opacity:1"
         d="m 130.31821,180.97358 2.36423,-3.95946"
         id="path55" />
      <path
         style="display:inline;fill:none;stroke:#c5c5c5;stroke-width:1;stroke-linecap:round;stroke-linejoin:round;stroke-miterlimit:4;stroke-dasharray:none;stroke-opacity:1"
         d="m 139.24744,181.28826 1.26945,-4.1036"
         id="path57" />
      <path
         style="display:inline;fill:none;stroke:#c5c5c5;stroke-width:1;stroke-linecap:round;stroke-linejoin:round;stroke-miterlimit:4;stroke-dasharray:none;stroke-opacity:1"
         d="m 133.12461,161.28072 -5.89206,2.60122"
         id="path59" />
    </g>
  </g>
</svg>
